<!DOCTYPE svg PUBLIC "-//W3C//DTD SVG 1.1//EN" "http://www.w3.org/Graphics/SVG/1.1/DTD/svg11.dtd">
<!-- Uploaded to: SVG Repo, www.svgrepo.com, Transformed by: SVG Repo Mixer Tools -->
<svg height="800px" width="800px" version="1.1" id="_x32_" xmlns="http://www.w3.org/2000/svg" xmlns:xlink="http://www.w3.org/1999/xlink" viewBox="0 0 512 512" xml:space="preserve" fill="#ffffff">
<g id="SVGRepo_bgCarrier" stroke-width="0"/>
<g id="SVGRepo_tracerCarrier" stroke-linecap="round" stroke-linejoin="round"/>
<g id="SVGRepo_iconCarrier"> <style type="text/css"> .st0{fill:#ffffff;} </style> <g> <path class="st0" d="M112.334,0v136.948c0,32.364,10.874,63.796,30.878,89.248l76.83,72.362 c9.999,12.725,15.434,28.442,15.434,44.632v64.2c0,19.251-11.468,36.656-29.162,44.245l-44.012,21.318 c-8.844,3.79-14.582,12.497-14.582,22.118V512h216.557v-16.93c0-9.621-5.734-18.327-14.581-22.118l-44.009-21.318 c-17.694-7.59-29.162-24.994-29.162-44.245v-64.2c0-16.19,5.435-31.907,15.434-44.632l76.83-72.362 c20.007-25.452,30.878-56.883,30.878-89.248V0H112.334z M360.916,127.608c0,22.928-7.598,45.494-21.414,63.761l-45.472,45.775 c-10.061,10.132-23.754,15.822-38.032,15.822c-14.278,0-27.967-5.7-38.032-15.822l-45.458-45.766 c-13.83-18.284-21.423-40.85-21.423-63.77v-41.36h209.832V127.608z"/> </g> </g>
</svg>